<mxfile host="app.diagrams.net" agent="Mozilla/5.0 (Windows NT 10.0; Win64; x64) AppleWebKit/537.36 (KHTML, like Gecko) Chrome/129.0.0.0 Safari/537.36" version="24.7.17">
  <diagram name="PÃ¡gina-1" id="ZIWTVONEGWOHdKPlRKJJ">
    <mxGraphModel dx="1196" dy="634" grid="1" gridSize="10" guides="1" tooltips="1" connect="1" arrows="1" fold="1" page="1" pageScale="1" pageWidth="1169" pageHeight="827" math="0" shadow="0">
      <root>
        <mxCell id="0" />
        <mxCell id="1" parent="0" />
        <mxCell id="oBgYq54XzVyNkxiAvu9t-1" value="Usuario" style="shape=umlActor;verticalLabelPosition=bottom;verticalAlign=top;html=1;outlineConnect=0;fillColor=#ffe6cc;strokeColor=#d79b00;" vertex="1" parent="1">
          <mxGeometry x="40" y="274" width="30" height="60" as="geometry" />
        </mxCell>
        <mxCell id="oBgYq54XzVyNkxiAvu9t-4" style="edgeStyle=orthogonalEdgeStyle;rounded=0;orthogonalLoop=1;jettySize=auto;html=1;exitX=1;exitY=0.5;exitDx=0;exitDy=0;entryX=0;entryY=0.5;entryDx=0;entryDy=0;" edge="1" parent="1" source="oBgYq54XzVyNkxiAvu9t-2" target="oBgYq54XzVyNkxiAvu9t-3">
          <mxGeometry relative="1" as="geometry" />
        </mxCell>
        <mxCell id="oBgYq54XzVyNkxiAvu9t-8" value="extends" style="edgeLabel;html=1;align=center;verticalAlign=middle;resizable=0;points=[];" vertex="1" connectable="0" parent="oBgYq54XzVyNkxiAvu9t-4">
          <mxGeometry x="-0.0476" y="1" relative="1" as="geometry">
            <mxPoint as="offset" />
          </mxGeometry>
        </mxCell>
        <mxCell id="oBgYq54XzVyNkxiAvu9t-6" value="" style="edgeStyle=orthogonalEdgeStyle;rounded=0;orthogonalLoop=1;jettySize=auto;html=1;" edge="1" parent="1" source="oBgYq54XzVyNkxiAvu9t-2" target="oBgYq54XzVyNkxiAvu9t-5">
          <mxGeometry relative="1" as="geometry" />
        </mxCell>
        <mxCell id="oBgYq54XzVyNkxiAvu9t-7" value="extends" style="edgeLabel;html=1;align=center;verticalAlign=middle;resizable=0;points=[];" vertex="1" connectable="0" parent="oBgYq54XzVyNkxiAvu9t-6">
          <mxGeometry x="-0.0571" y="2" relative="1" as="geometry">
            <mxPoint as="offset" />
          </mxGeometry>
        </mxCell>
        <mxCell id="oBgYq54XzVyNkxiAvu9t-2" value="Cria lista de filmes" style="ellipse;whiteSpace=wrap;html=1;" vertex="1" parent="1">
          <mxGeometry x="190" y="184" width="120" height="80" as="geometry" />
        </mxCell>
        <mxCell id="oBgYq54XzVyNkxiAvu9t-10" value="" style="edgeStyle=orthogonalEdgeStyle;rounded=0;orthogonalLoop=1;jettySize=auto;html=1;" edge="1" parent="1" source="oBgYq54XzVyNkxiAvu9t-3" target="oBgYq54XzVyNkxiAvu9t-9">
          <mxGeometry relative="1" as="geometry" />
        </mxCell>
        <mxCell id="oBgYq54XzVyNkxiAvu9t-11" value="extends" style="edgeLabel;html=1;align=center;verticalAlign=middle;resizable=0;points=[];" vertex="1" connectable="0" parent="oBgYq54XzVyNkxiAvu9t-10">
          <mxGeometry x="-0.12" relative="1" as="geometry">
            <mxPoint as="offset" />
          </mxGeometry>
        </mxCell>
        <mxCell id="oBgYq54XzVyNkxiAvu9t-3" value="Adiciona Filme" style="ellipse;whiteSpace=wrap;html=1;" vertex="1" parent="1">
          <mxGeometry x="415" y="184" width="120" height="80" as="geometry" />
        </mxCell>
        <mxCell id="oBgYq54XzVyNkxiAvu9t-5" value="Busca Filme" style="ellipse;whiteSpace=wrap;html=1;" vertex="1" parent="1">
          <mxGeometry x="190" y="334" width="120" height="80" as="geometry" />
        </mxCell>
        <mxCell id="oBgYq54XzVyNkxiAvu9t-9" value="avalia filme" style="ellipse;whiteSpace=wrap;html=1;" vertex="1" parent="1">
          <mxGeometry x="610" y="184" width="120" height="80" as="geometry" />
        </mxCell>
        <mxCell id="oBgYq54XzVyNkxiAvu9t-13" value="" style="endArrow=classic;html=1;rounded=0;exitX=1;exitY=0.3333333333333333;exitDx=0;exitDy=0;exitPerimeter=0;entryX=0;entryY=0.5;entryDx=0;entryDy=0;" edge="1" parent="1" source="oBgYq54XzVyNkxiAvu9t-1" target="oBgYq54XzVyNkxiAvu9t-2">
          <mxGeometry width="50" height="50" relative="1" as="geometry">
            <mxPoint x="90" y="424" as="sourcePoint" />
            <mxPoint x="140" y="374" as="targetPoint" />
          </mxGeometry>
        </mxCell>
        <mxCell id="oBgYq54XzVyNkxiAvu9t-14" value="" style="endArrow=classic;html=1;rounded=0;exitX=1;exitY=1;exitDx=0;exitDy=0;exitPerimeter=0;entryX=0;entryY=0.5;entryDx=0;entryDy=0;" edge="1" parent="1" source="oBgYq54XzVyNkxiAvu9t-1" target="oBgYq54XzVyNkxiAvu9t-5">
          <mxGeometry width="50" height="50" relative="1" as="geometry">
            <mxPoint x="100" y="424" as="sourcePoint" />
            <mxPoint x="150" y="374" as="targetPoint" />
          </mxGeometry>
        </mxCell>
        <mxCell id="oBgYq54XzVyNkxiAvu9t-15" value="adiciona filmes ao catalogo" style="ellipse;whiteSpace=wrap;html=1;" vertex="1" parent="1">
          <mxGeometry x="610" y="60" width="120" height="80" as="geometry" />
        </mxCell>
        <mxCell id="oBgYq54XzVyNkxiAvu9t-17" style="rounded=0;orthogonalLoop=1;jettySize=auto;html=1;exitX=0;exitY=0.3333333333333333;exitDx=0;exitDy=0;exitPerimeter=0;entryX=1;entryY=0.5;entryDx=0;entryDy=0;" edge="1" parent="1" source="oBgYq54XzVyNkxiAvu9t-16" target="oBgYq54XzVyNkxiAvu9t-15">
          <mxGeometry relative="1" as="geometry" />
        </mxCell>
        <mxCell id="oBgYq54XzVyNkxiAvu9t-16" value="Sistema" style="shape=umlActor;verticalLabelPosition=bottom;verticalAlign=top;html=1;outlineConnect=0;" vertex="1" parent="1">
          <mxGeometry x="890" y="124" width="30" height="56" as="geometry" />
        </mxCell>
        <mxCell id="oBgYq54XzVyNkxiAvu9t-18" value="CASO DE USO" style="rounded=1;whiteSpace=wrap;html=1;" vertex="1" parent="1">
          <mxGeometry x="70" y="70" width="120" height="60" as="geometry" />
        </mxCell>
      </root>
    </mxGraphModel>
  </diagram>
</mxfile>
